<svg xmlns="http://www.w3.org/2000/svg" xmlns:xlink="http://www.w3.org/1999/xlink" width="375" height="500" viewBox="0 0 375 500">
  <defs>
    <linearGradient id="linear-gradient" x1="0.5" x2="0.5" y2="1" gradientUnits="objectBoundingBox">
      <stop offset="0" stop-color="#8373f6"/>
      <stop offset="0.483" stop-color="#8373f6"/>
      <stop offset="1" stop-color="#90ceed"/>
    </linearGradient>
    <linearGradient id="linear-gradient-2" x1="0.5" y1="0.5" x2="0.5" y2="-0.085" gradientUnits="objectBoundingBox">
      <stop offset="0" stop-opacity="0"/>
      <stop offset="1" stop-color="#6d5ed8"/>
    </linearGradient>
    <clipPath id="clip-path">
      <rect id="Rectangle_59" data-name="Rectangle 59" width="301" height="186" rx="36" transform="translate(0.289 0.248)" fill="#c5c1e2"/>
    </clipPath>
    <clipPath id="clip-iPhone_13_mini_3">
      <rect width="375" height="500"/>
    </clipPath>
  </defs>
  <g id="iPhone_13_mini_3" data-name="iPhone 13 mini – 3" clip-path="url(#clip-iPhone_13_mini_3)">
    <rect width="375" height="500" fill="#fff"/>
    <rect id="Rectangle_10" data-name="Rectangle 10" width="375" height="501" fill="url(#linear-gradient)"/>
    <g id="Group_55" data-name="Group 55" transform="translate(-16.964 -15)">
      <path id="Path_22" data-name="Path 22" d="M92.471,34.557a4.838,4.838,0,0,1-4.832-4.832V4.832a4.832,4.832,0,1,1,9.665,0H95.865a3.394,3.394,0,1,0-6.788,0V29.725a3.394,3.394,0,0,0,6.788,0H97.3a4.838,4.838,0,0,1-4.832,4.832" transform="translate(81.326 47.324)" fill="#fff"/>
      <path id="Path_23" data-name="Path 23" d="M240.743,47.814a4.838,4.838,0,0,1-4.832-4.832v-5.2a4.832,4.832,0,0,1,9.665,0v5.2a4.838,4.838,0,0,1-4.832,4.832m0-13.431a3.4,3.4,0,0,0-3.394,3.394v5.2a3.394,3.394,0,1,0,6.788,0v-5.2a3.4,3.4,0,0,0-3.394-3.394" transform="translate(-19.635 24.891)" fill="#fff"/>
      <path id="Path_24" data-name="Path 24" d="M240.743,78.407a4.838,4.838,0,0,1-4.832-4.832V64.4h1.438v9.176a3.394,3.394,0,1,0,6.788,0h1.438a4.837,4.837,0,0,1-4.832,4.832" transform="translate(-19.635 3.473)" fill="#fff"/>
      <rect id="Rectangle_6" data-name="Rectangle 6" width="1.438" height="34.6" transform="translate(181.177 47.324)" fill="#fff"/>
      <rect id="Rectangle_7" data-name="Rectangle 7" width="1.438" height="24.092" transform="translate(186.574 57.832)" fill="#fff"/>
      <path id="Path_25" data-name="Path 25" d="M162.782,32.945a4.838,4.838,0,0,0-4.832,4.832v14.38c0,.016,0,.033,0,.049h0V62.992h1.438v-7.4a4.829,4.829,0,0,0,8.226-3.436V37.777a4.838,4.838,0,0,0-4.832-4.832m3.394,19.213a3.394,3.394,0,1,1-6.788,0V37.777a3.394,3.394,0,1,1,6.788,0Z" transform="translate(33.449 24.891)" fill="#fff"/>
      <path id="Path_26" data-name="Path 26" d="M201.9,32.945a4.837,4.837,0,0,0-4.832,4.832V62.992h1.438v-7.4a4.829,4.829,0,0,0,8.226-3.436V37.777a4.838,4.838,0,0,0-4.832-4.832M205.3,52.157a3.394,3.394,0,1,1-6.788,0V37.777a3.394,3.394,0,1,1,6.788,0Z" transform="translate(6.811 24.891)" fill="#fff"/>
      <path id="Path_27" data-name="Path 27" d="M270.874,29.321v-18.8h2.631V9.079h-2.631V0h-1.438V9.079h-2.631v1.438h2.631v18.8a5.242,5.242,0,0,0,5.236,5.236V33.119a3.8,3.8,0,0,1-3.8-3.8" transform="translate(-40.673 47.324)" fill="#fff"/>
    </g>
    <path id="Path_131" data-name="Path 131" d="M17.819,24.439H3.29l-.216-2.406a.763.763,0,0,0-.76-.695H.763a.763.763,0,1,0,0,1.526h.853l.878,9.779a2.936,2.936,0,0,0,1.1,1.989,2.313,2.313,0,1,0,4,.636h4.177a2.314,2.314,0,1,0,2.176-1.526H5.42a1.417,1.417,0,0,1-1.3-.859l12.2-.717a.763.763,0,0,0,.7-.577l1.551-6.2A.763.763,0,0,0,17.819,24.439Zm-12.4,12.4a.787.787,0,1,1,.787-.787A.788.788,0,0,1,5.415,36.843Zm8.528,0a.787.787,0,1,1,.787-.787A.788.788,0,0,1,13.943,36.843Zm1.721-6.168-11.752.691-.485-5.4H16.842Z" transform="translate(288 21.822)" fill="#fff"/>
    <g id="Group_57" data-name="Group 57" transform="translate(757.988 193.18)">
      <path id="Path_48" data-name="Path 48" d="M14.521,2.491A8.506,8.506,0,0,0,2.491,14.521,8.506,8.506,0,0,0,14.521,2.491ZM3.692,14.264A4.866,4.866,0,0,1,8.506,9.981a4.848,4.848,0,0,1,4.814,4.282,7.493,7.493,0,0,1-9.629,0ZM8.506,8.955a2.583,2.583,0,1,1,2.583-2.583A2.587,2.587,0,0,1,8.506,8.955Zm5.672,4.466A5.86,5.86,0,0,0,10.51,9.336a3.58,3.58,0,1,0-4.008,0,5.854,5.854,0,0,0-3.67,4.083,7.509,7.509,0,1,1,11.345,0Zm0,0" transform="translate(-440 -150)" fill="#fff"/>
    </g>
    <g id="Group_56" data-name="Group 56" transform="translate(-3 -15)">
      <rect id="Rectangle_26" data-name="Rectangle 26" width="25" height="2" rx="1" transform="translate(39 59)" fill="#fff"/>
      <rect id="Rectangle_27" data-name="Rectangle 27" width="25" height="2" rx="1" transform="translate(39 66)" fill="#fff"/>
      <rect id="Rectangle_28" data-name="Rectangle 28" width="25" height="2" rx="1" transform="translate(39 73)" fill="#fff"/>
    </g>
    <text id="Designing_Your_Milestones_Logo_Social_Media_Presentation_CV_more" data-name="Designing Your Milestones
Logo, Social Media, Presentation, CV &amp; more" transform="translate(188 141)" fill="#ffcd2c" font-size="24" font-family="CreatoDisplay-Black, Creato Display" font-weight="800"><tspan x="-153.216" y="0">Designing Your Milestones</tspan><tspan fill="#fff" font-size="12" font-family="CreatoDisplay-Bold, Creato Display" font-weight="700"><tspan x="-121.722" y="20">Logo, Social Media, Presentation, CV &amp; more</tspan></tspan></text>
    <ellipse id="Ellipse_26" data-name="Ellipse 26" cx="158.5" cy="39" rx="158.5" ry="39" transform="translate(29 431)" opacity="0.882" fill="url(#linear-gradient-2)" style="mix-blend-mode: overlay;isolation: isolate"/>
  </g>
</svg>
